<svg xmlns="http://www.w3.org/2000/svg" viewBox="0 0 1200 560" fill="none">
  <!-- Background -->
  <rect width="1200" height="560" fill="#0A0A0A"/>
  <!-- Subtle grid -->
  <line x1="0" y1="100" x2="1200" y2="100" stroke="#141414" stroke-width="1"/>
  <line x1="0" y1="200" x2="1200" y2="200" stroke="#141414" stroke-width="1"/>
  <line x1="0" y1="300" x2="1200" y2="300" stroke="#141414" stroke-width="1"/>
  <line x1="0" y1="400" x2="1200" y2="400" stroke="#141414" stroke-width="1"/>
  <line x1="0" y1="500" x2="1200" y2="500" stroke="#141414" stroke-width="1"/>

  <!-- Left header -->
  <text x="64" y="120" font-family="'Courier New', monospace" font-size="10" fill="#3A3A3A" letter-spacing="3">TRI-VALLEY PREP — STUDENT-RUN SAT TUTORING</text>
  <text x="64" y="142" font-family="'Courier New', monospace" font-size="10" fill="#3A3A3A" letter-spacing="3">1-ON-1 · GOOGLE MEET · CO-FOUNDED 2025</text>

  <!-- Big stat -->
  <text x="64" y="276" font-family="Georgia, serif" font-size="116" fill="#EDEDED" opacity="0.95" font-weight="300">800</text>
  <text x="64" y="320" font-family="Georgia, serif" font-size="30" fill="#888888" font-weight="300">perfect Math score</text>
  <text x="64" y="360" font-family="'Courier New', monospace" font-size="10" fill="#3A3A3A" letter-spacing="2">TUTORS SCORED 1540–1570 SAT · TARGET 1500+</text>

  <!-- City pills -->
  <rect x="64" y="378" width="74" height="26" rx="2" fill="#131313" stroke="#1E1E1E" stroke-width="1"/>
  <text x="101" y="396" font-family="'Courier New', monospace" font-size="9" fill="#888888" text-anchor="middle" letter-spacing="1">DUBLIN</text>

  <rect x="148" y="378" width="110" height="26" rx="2" fill="#131313" stroke="#1E1E1E" stroke-width="1"/>
  <text x="203" y="396" font-family="'Courier New', monospace" font-size="9" fill="#888888" text-anchor="middle" letter-spacing="1">PLEASANTON</text>

  <rect x="268" y="378" width="104" height="26" rx="2" fill="#131313" stroke="#1E1E1E" stroke-width="1"/>
  <text x="320" y="396" font-family="'Courier New', monospace" font-size="9" fill="#888888" text-anchor="middle" letter-spacing="1">SAN RAMON</text>

  <rect x="382" y="378" width="92" height="26" rx="2" fill="#131313" stroke="#1E1E1E" stroke-width="1"/>
  <text x="428" y="396" font-family="'Courier New', monospace" font-size="9" fill="#888888" text-anchor="middle" letter-spacing="1">DANVILLE</text>

  <!-- Divider vertical -->
  <line x1="540" y1="80" x2="540" y2="490" stroke="#1E1E1E" stroke-width="1"/>

  <!-- Right: score trajectory chart -->
  <text x="600" y="112" font-family="'Courier New', monospace" font-size="10" fill="#3A3A3A" letter-spacing="2">SAMPLE STUDENT — SCORE TRAJECTORY</text>

  <!-- Y gridlines + labels -->
  <line x1="660" y1="130" x2="1110" y2="130" stroke="#161616" stroke-width="1"/>
  <text x="648" y="134" font-family="'Courier New', monospace" font-size="9" fill="#3A3A3A" text-anchor="end">1600</text>
  <line x1="660" y1="198" x2="1110" y2="198" stroke="#161616" stroke-width="1"/>
  <text x="648" y="202" font-family="'Courier New', monospace" font-size="9" fill="#3A3A3A" text-anchor="end">1500</text>
  <line x1="660" y1="266" x2="1110" y2="266" stroke="#161616" stroke-width="1"/>
  <text x="648" y="270" font-family="'Courier New', monospace" font-size="9" fill="#3A3A3A" text-anchor="end">1400</text>
  <line x1="660" y1="334" x2="1110" y2="334" stroke="#161616" stroke-width="1"/>
  <text x="648" y="338" font-family="'Courier New', monospace" font-size="9" fill="#3A3A3A" text-anchor="end">1300</text>
  <line x1="660" y1="402" x2="1110" y2="402" stroke="#161616" stroke-width="1"/>
  <text x="648" y="406" font-family="'Courier New', monospace" font-size="9" fill="#3A3A3A" text-anchor="end">1200</text>
  <line x1="660" y1="470" x2="1110" y2="470" stroke="#1E1E1E" stroke-width="1"/>

  <!-- Area + line -->
  <polygon points="660,416 773,348 885,273 997,218 1110,171 1110,470 660,470" fill="#1A5BBF" opacity="0.10"/>
  <polyline points="660,416 773,348 885,273 997,218 1110,171" fill="none" stroke="#4A80C0" stroke-width="2"/>

  <!-- Vertices -->
  <circle cx="660" cy="416" r="4" fill="#0A0A0A" stroke="#4A80C0" stroke-width="2"/>
  <circle cx="773" cy="348" r="4" fill="#0A0A0A" stroke="#4A80C0" stroke-width="2"/>
  <circle cx="885" cy="273" r="4" fill="#0A0A0A" stroke="#4A80C0" stroke-width="2"/>
  <circle cx="997" cy="218" r="4" fill="#0A0A0A" stroke="#4A80C0" stroke-width="2"/>
  <circle cx="1110" cy="171" r="5" fill="#4A80C0"/>

  <!-- Endpoint labels -->
  <text x="660" y="438" font-family="'Courier New', monospace" font-size="9" fill="#888888" text-anchor="middle">1180</text>
  <text x="1110" y="158" font-family="'Courier New', monospace" font-size="11" fill="#EDEDED" text-anchor="end">1540</text>

  <!-- X labels -->
  <text x="660" y="488" font-family="'Courier New', monospace" font-size="9" fill="#3A3A3A" text-anchor="middle">DIAG</text>
  <text x="773" y="488" font-family="'Courier New', monospace" font-size="9" fill="#3A3A3A" text-anchor="middle">WK 4</text>
  <text x="885" y="488" font-family="'Courier New', monospace" font-size="9" fill="#3A3A3A" text-anchor="middle">WK 8</text>
  <text x="997" y="488" font-family="'Courier New', monospace" font-size="9" fill="#3A3A3A" text-anchor="middle">WK 12</text>
  <text x="1110" y="488" font-family="'Courier New', monospace" font-size="9" fill="#3A3A3A" text-anchor="middle">FINAL</text>

  <!-- Footer rule -->
  <line x1="64" y1="504" x2="1136" y2="504" stroke="#1E1E1E" stroke-width="1"/>
  <text x="64" y="524" font-family="'Courier New', monospace" font-size="9" fill="#3A3A3A" letter-spacing="2">CO-FOUNDED FROM SCRATCH · WEBSITE · PRICING · BRANDING · CLIENT ACQUISITION</text>
  <text x="64" y="542" font-family="'Courier New', monospace" font-size="9" fill="#3A3A3A" letter-spacing="2">SERVING DUBLIN · PLEASANTON · SAN RAMON · DANVILLE · BUILT WITH NEXT.JS + TAILWIND</text>
</svg>
